HIERARCHY
ROOT Hips
{
  OFFSET -102.467 93.6631 130.069
  CHANNELS 6 Xposition Yposition Zposition Zrotation Xrotation Yrotation
  JOINT LeftUpLeg
  {
    OFFSET 8.64259 1.95398 -2.38835
    CHANNELS 3 Zrotation Xrotation Yrotation
    JOINT LeftLeg
    {
      OFFSET 43.7702 0 0
      CHANNELS 3 Zrotation Xrotation Yrotation
      JOINT LeftFoot
      {
        OFFSET 40.6238 0 0
        CHANNELS 3 Zrotation Xrotation Yrotation
        JOINT LeftToeBase
        {
          OFFSET 12.7242 0 0
          CHANNELS 3 Zrotation Xrotation Yrotation
          End Site
          {
            OFFSET 0 0 0
          }
        }
      }
    }
  }
  JOINT RightUpLeg
  {
    OFFSET -8.2249 1.95398 -2.59336
    CHANNELS 3 Zrotation Xrotation Yrotation
    JOINT RightLeg
    {
      OFFSET 43.5653 0 0
      CHANNELS 3 Zrotation Xrotation Yrotation
      JOINT RightFoot
      {
        OFFSET 40.6238 0 0
        CHANNELS 3 Zrotation Xrotation Yrotation
        JOINT RightToeBase
        {
          OFFSET 12.7242 0 0
          CHANNELS 3 Zrotation Xrotation Yrotation
          End Site
          {
            OFFSET 0 0 0
          }
        }
      }
    }
  }
  JOINT Spine
  {
    OFFSET 0.165834 0.87714 6.61349
    CHANNELS 3 Zrotation Xrotation Yrotation
    JOINT Spine1
    {
      OFFSET 7.38963 1.71661e-005 0
      CHANNELS 3 Zrotation Xrotation Yrotation
      JOINT Spine2
      {
        OFFSET 11.9445 1.14441e-005 0
        CHANNELS 3 Zrotation Xrotation Yrotation
        JOINT Spine3
        {
          OFFSET 14.7254 4.19617e-005 0
          CHANNELS 3 Zrotation Xrotation Yrotation
          JOINT Spine4
          {
            OFFSET 10.9679 0 0
            CHANNELS 3 Zrotation Xrotation Yrotation
            JOINT RightShoulder
            {
              OFFSET 2.46616 -1.6653 3.69651
              CHANNELS 3 Zrotation Xrotation Yrotation
              JOINT RightArm
              {
                OFFSET 13.0012 0 0
                CHANNELS 3 Zrotation Xrotation Yrotation
                JOINT RightForeArm
                {
                  OFFSET 28.7848 1.52588e-005 0
                  CHANNELS 3 Zrotation Xrotation Yrotation
                  JOINT RightHand
                  {
                    OFFSET 26.5688 1.52588e-005 0
                    CHANNELS 3 Zrotation Xrotation Yrotation
                    End Site
                    {
                      OFFSET 0 0 0
                    }
                  }
                }
              }
            }
            JOINT LeftShoulder
            {
              OFFSET 2.38034 -1.29275 -3.7523
              CHANNELS 3 Zrotation Xrotation Yrotation
              JOINT LeftArm
              {
                OFFSET 16.3182 6.10351e-005 0
                CHANNELS 3 Zrotation Xrotation Yrotation
                JOINT LeftForeArm
                {
                  OFFSET 27.0901 0 0
                  CHANNELS 3 Zrotation Xrotation Yrotation
                  JOINT LeftHand
                  {
                    OFFSET 24.5451 1.52588e-005 0
                    CHANNELS 3 Zrotation Xrotation Yrotation
                    End Site
                    {
                      OFFSET 0 0 0
                    }
                  }
                }
              }
            }
            JOINT Neck
            {
              OFFSET 5.0226 -0.0266342 0
              CHANNELS 3 Zrotation Xrotation Yrotation
              JOINT Head
              {
                OFFSET 6.69363 2.86102e-005 0
                CHANNELS 3 Zrotation Xrotation Yrotation
                End Site
                {
                  OFFSET 0 0 0
                }
              }
            }
          }
        }
      }
    }
  }
}
MOTION
Frames:	17
Frame Time:	0.0416667
-4.05893 83.8405 -9.70072 129.069 43.1116 66.4512 179.659 27.9445 93.76 -59.7558 14.1993 4.21853 54.4457 0.915387 9.47264 60.4784 -2.07681 4.89985 173.441 22.7779 93.4421 -65.7324 -26.616 0.849866 52.1769 3.16844 -5.01079 54.7592 -5.49007 2.38898 -0.617028 9.87159 -90.4161 7.12542 -1.41117 -0.757389 -4.54495 -1.44316 -0.694548 -27.0825 -1.11833 -1.1465 -7.06991 -1.11833 -1.14651 100.158 -50.4509 -85.2835 34.0131 -22.1606 13.9526 -3.42467 -7.57074 -23.8616 -1.09503 -0.0246234 -5.79178 -89.9104 -56.9219 79.9792 -0.776015 20.1519 -17.8584 19.4101 6.12943 -58.0802 4.00615 -0.304834 -8.21429 -5.61619 2.20431 -6.63155 -16.4702 1.49157 12.0475 
5.34828 85.667 -21.1856 125.859 40.5421 64.9936 -177.982 22.5751 90.2896 -32.0782 15.4753 1.60634 42.7133 -8.93365 0.599636 62.6633 -1.37795 7.14694 174.318 17.0584 89.0683 -73.301 -23.9205 -1.56525 56.6721 -1.12696 -6.12228 59.9089 -7.08211 1.8919 -0.319387 9.66074 -89.887 7.55026 -0.588724 0.254164 -4.12063 -0.57696 0.279834 -26.6564 -0.637888 0.0654798 -6.64373 -0.637888 0.0654781 100.897 -49.8878 -84.1516 33.1746 -22.6145 11.6784 -2.67613 -4.1516 -25.8425 -2.15566 -0.014205 -5.96201 -88.9072 -56.5631 81.3139 -3.26346 22.7965 -10.1643 21.9675 3.55658 -63.5058 -3.98092 -0.0371315 -6.90622 -6.76801 1.69084 -6.75488 -17.4087 0.876108 11.5859 
14.3781 85.0305 -32.0292 122.221 34.8474 70.2206 -172.562 24.3059 92.5151 -44.4049 17.3774 -0.539009 47.8601 -6.03135 6.2736 45.8591 -2.09298 -0.811277 176.739 21.8933 89.3074 -85.379 -22.031 -2.80324 46.206 9.14064 5.54543 38.3867 -1.64477 1.97749 -0.176605 9.68984 -89.9122 7.49423 -0.314522 0.188887 -4.1767 -0.305908 0.202548 -26.712 -0.356741 0.0856288 -6.6993 -0.356746 0.0856306 100.096 -48.7374 -85.4473 32.2838 -25.8012 9.88682 1.08972 4.81363 -31.2969 -2.37422 0.0349052 -8.67177 -89.8195 -55.4916 79.8351 -5.82017 19.7276 -0.180668 24.7987 1.51077 -68.3198 -9.78944 0.173569 -8.51589 -3.26654 3.90177 -8.12361 -18.3542 2.86815 15.3485 
22.1195 84.6996 -40.8172 124.223 34.8487 67.4553 -170.742 22.1368 89.516 -58.8452 20.0491 -0.751205 55.0028 2.64049 18.0825 42.2375 -2.08309 -2.52789 173.808 27.8034 86.9333 -88.8075 -19.2389 -2.38711 51.8197 7.99463 11.0022 27.4924 0.443936 1.18667 -0.71649 10.0433 -89.6098 6.79125 -1.26443 0.820283 -4.87937 -1.2271 0.875132 -27.4187 -1.45249 0.402294 -7.40608 -1.45248 0.402291 100.635 -50.4447 -84.5444 31.2346 -25.1935 7.33755 3.28919 7.8461 -33.9873 -8.08248 0.0390928 -6.38958 -89.6966 -54.5285 79.829 0.498047 21.3943 -7.02812 26.4458 6.81946 -62.6425 -9.49529 0.202068 -9.10056 -0.94559 4.75442 -8.89714 -19.1282 3.51859 17.8769 
28.8922 86.1431 -48.3914 120.622 35.7023 70.4896 -169.61 19.9886 89.8036 -63.2048 21.7111 -0.595025 57.8772 6.64556 21.4814 51.7403 -1.93195 2.89924 170.353 32.3808 88.9435 -72.4719 -18.1948 0.5355 55.0954 7.53958 12.8184 34.6482 0.251759 7.66402 -0.699502 9.91663 -89.6989 7.04391 -1.2675 0.648656 -4.62661 -1.23773 0.703809 -27.1665 -1.40387 0.237658 -7.1538 -1.40383 0.237668 100.845 -51.3505 -84.1959 33.0642 -26.8719 7.95756 5.09556 10.1488 -34.2947 -8.49402 0.0403907 -6.07645 -90.277 -54.4645 78.988 5.86795 19.0449 -18.2688 22.0874 12.2547 -54.5813 -9.67 0.272779 -10.0621 -1.06096 4.70432 -7.72875 -17.6747 3.53269 17.923 
35.0998 87.8759 -54.9785 119.917 40.7816 69.0878 -172.237 17.9909 88.2236 -65.9187 21.3279 0.492972 57.164 4.4308 16.7471 56.6673 -2.1689 3.7049 168.413 28.2348 86.4801 -42.6936 -15.8325 4.8293 49.4831 10.5355 13.3076 36.3711 0.844461 11.7552 -1.12307 9.91107 -89.6698 7.05853 -2.10109 0.742777 -4.61098 -2.06633 0.834549 -27.1598 -2.22714 0.0766765 -7.14719 -2.22711 0.0766804 100.973 -51.9957 -83.9844 35.2447 -26.7932 10.7328 3.00891 8.52902 -35.9364 -1.46887 -0.00975026 -7.14937 -89.678 -53.3952 79.6368 3.19639 16.0523 -22.3575 11.2832 2.8044 -54.6302 -4.08505 -0.0234086 -7.16126 0.510774 4.31118 -6.93205 -15.1031 3.61534 17.0681 
41.5951 88.2423 -61.4074 120.098 45.1607 67.1465 -173.316 19.9975 89.9139 -72.5084 20.9087 1.20434 49.732 -4.48341 0.964316 52.9885 -3.06812 -0.988555 170.192 24.6357 83.791 -31.242 -10.2374 5.23674 47.8551 12.2278 14.3756 20.2935 2.90301 5.93699 -1.07621 9.89503 -89.7589 7.08734 -2.04579 0.568297 -4.5822 -2.0188 0.657821 -27.1301 -2.12197 -0.0730913 -7.11745 -2.12197 -0.0731004 100.896 -51.687 -84.1097 38.1788 -25.2472 15.0196 3.15869 9.15654 -38.041 -1.63652 -0.00559622 -7.59502 -89.1311 -52.3448 80.2278 1.84787 18.3909 -27.3086 9.38168 -1.45793 -60.9042 2.58745 -0.18767 -6.8868 -0.990078 2.57747 -4.81922 -11.2493 2.38394 12.5844 
46.5273 87.3605 -66.4977 123.734 48.1994 65.1538 -175.638 24.6953 93.7806 -80.1352 22.1093 2.60389 48.682 -5.3426 -2.87028 47.745 -2.01937 0.975941 167.853 26.1623 83.6715 -44.8126 -13.5531 6.38438 56.2687 6.35707 5.7121 15.7362 3.10741 2.13017 -0.780989 10.3064 -90.2184 6.26047 -1.6522 -0.379828 -5.40941 -1.66733 -0.306736 -27.9513 -1.46163 -0.858911 -7.93869 -1.46165 -0.858918 100.622 -53.2779 -84.4812 34.1583 -26.3519 14.2539 1.35186 6.94868 -39.2138 -4.60103 0.0218553 -6.64648 -90.2425 -54.1351 78.9715 5.30976 21.8065 -32.3974 14.2025 -4.00771 -70.3031 1.66398 -0.21336 -7.86658 -2.69977 0.0727432 -1.22575 -4.34857 0.181523 7.44523 
49.5706 88.365 -70.3625 119.953 50.735 69.4617 -177.002 30.589 96.0678 -72.8931 16.7111 2.97628 52.244 -1.37282 4.30967 50.1127 -1.58679 3.63277 165.445 26.8871 84.5304 -46.5295 -15.2041 8.23826 56.5858 5.04104 3.45742 22.4124 1.9241 4.19234 -0.716808 10.5986 -90.6468 5.66574 -1.70221 -1.22775 -6.00461 -1.75462 -1.15163 -28.5406 -1.25461 -1.68255 -8.5279 -1.25458 -1.68254 99.9703 -54.2448 -85.4227 22.0998 -26.9908 -1.82899 -6.27628 -8.47818 -29.7943 -1.85073 -0.0310509 -4.76232 -91.2819 -54.5669 77.5779 3.92528 22.0625 -33.1371 20.8858 -3.40306 -73.4731 4.30813 -0.282048 -7.65043 -1.41863 -0.808643 1.66771 2.68145 -0.671949 5.83937 
51.124 90.1825 -73.0639 113.606 50.4253 74.0906 -176.819 30.9747 95.702 -52.5688 12.7324 2.6072 52.562 -1.04085 5.57896 54.4938 -1.11583 6.53234 165.392 27.5078 84.6689 -44.7018 -13.0484 7.79672 56.5036 5.87142 6.65192 22.343 1.97287 4.62319 -0.462206 10.7345 -90.7419 5.39487 -1.23159 -1.42977 -6.27621 -1.2933 -1.3742 -28.8071 -0.745035 -1.73374 -8.79447 -0.745002 -1.73373 99.055 -52.442 -86.8783 19.6885 -17.3794 -12.0665 -7.54711 -16.5501 -23.6359 -6.7135 -0.169324 -2.33128 -92.4278 -55.304 76.1204 4.88905 24.1017 -35.8211 18.1167 -1.04354 -68.4859 3.73385 -0.213051 -6.67837 3.92749 -0.530185 -2.68292 -0.140408 0.300709 10.7773 
52.1819 91.4291 -76.4142 107.759 47.2114 78.2933 -175.851 27.382 95.0843 -37.8244 16.3239 1.73338 49.1021 -3.74018 6.63017 44.0102 -1.48222 1.1041 166.388 28.2714 84.7189 -43.8297 -13.2059 6.83238 57.3597 5.38854 7.60669 22.5538 2.1664 6.80748 -0.284058 10.9086 -90.6412 5.0503 -0.83201 -1.24371 -6.62093 -0.885917 -1.2059 -29.1521 -0.419807 -1.43624 -9.13941 -0.419795 -1.43623 97.7837 -51.5874 -88.8719 17.8888 -10.7474 -21.1309 -6.02523 -11.714 -22.1448 -4.64077 -0.08078 -3.51876 -93.3669 -55.9449 74.9548 6.6157 24.9789 -37.0968 19.4459 2.8625 -64.2811 3.08649 -0.164231 -5.91179 1.16978 0.488206 -2.33921 5.78068 1.79017 11.2317 
52.4285 91.4655 -79.2941 104.344 44.8674 80.6536 -174.081 28.2288 94.2021 -40.0231 17.0268 0.609548 51.2127 -1.56761 11.592 42.1065 -1.7078 -0.764637 167.213 30.329 84.2808 -45.431 -15.5047 5.78739 57.3305 5.13579 7.68112 25.1774 1.75574 7.12892 -0.318851 11.1479 -90.6145 4.57159 -0.887922 -1.19517 -7.09957 -0.939652 -1.15494 -29.6312 -0.487733 -1.40674 -9.61858 -0.487721 -1.40673 97.0969 -51.0453 -89.971 17.6861 -5.50959 -30.355 -9.52083 -14.0399 -25.8452 -2.49857 -0.0588695 -3.17483 -94.1886 -55.8217 73.7781 7.61731 25.2423 -38.4247 22.4984 6.83868 -62.5915 -0.269063 -0.100734 -4.6728 3.37637 0.892742 -2.4222 6.16579 2.49362 13.45 
52.3787 91.1669 -81.2972 98.7837 45.7642 84.6613 -172.609 32.4557 93.4621 -41.8559 18.5479 -0.737926 53.0207 0.19751 12.8027 42.4259 -1.95795 -1.91124 166.793 34.1024 83.7337 -46.4956 -15.6604 6.31377 58.5942 4.67566 7.80966 26.2848 1.59399 7.31315 -0.275588 11.1478 -90.773 4.56996 -0.866088 -1.50598 -7.10152 -0.931527 -1.46642 -29.6303 -0.373508 -1.69659 -9.61762 -0.373511 -1.6966 97.5178 -49.8027 -89.4344 17.0173 -4.3512 -35.7747 -12.6195 -12.8607 -33.3697 -2.39738 -0.0245535 -5.28181 -94.5889 -55.797 73.2153 8.34173 24.0838 -44.1301 22.3833 12.3569 -58.3972 -2.4921 -0.0883926 -6.41643 6.52525 0.83973 -3.21681 7.44426 2.82063 13.5058 
51.7665 90.2159 -82.5847 93.0244 42.3251 89.4478 -169.884 37.6308 93.4196 -45.0794 18.7091 -2.27342 54.6566 2.4095 16.5414 43.1511 -1.87968 -1.01206 166.653 39.1657 85.2211 -47.731 -17.7084 6.43946 58.5096 4.2186 7.05348 27.0058 1.67673 8.84442 0.037562 11.2851 -90.7527 4.30002 -0.230365 -1.47333 -7.37171 -0.294972 -1.46177 -29.9003 0.223017 -1.47446 -9.88768 0.223043 -1.47446 97.2654 -47.417 -90.0607 15.0598 -7.21618 -41.0552 -16.1485 -10.7785 -43.1022 -2.78074 -0.00864841 -6.0909 -93.6811 -54.8762 74.2512 5.72214 20.3028 -49.293 23.1508 17.5206 -54.6445 -0.788685 -0.134241 -7.14576 8.60747 1.17459 -2.71394 12.2984 3.51794 12.3749 
51.1716 88.8342 -83.3682 87.3787 41.3074 92.8521 -168.651 43.6152 91.6103 -48.6603 18.3071 -2.8817 55.3419 3.55378 17.696 44.9609 -1.98959 -0.414271 164.545 45.4472 85.2544 -51.285 -16.5228 7.04849 58.9601 3.72715 6.54983 37.5613 0.314176 9.82055 0.123682 11.4104 -90.6531 4.05108 -0.0164796 -1.2788 -7.62051 -0.0727299 -1.27684 -30.1509 0.368584 -1.22465 -10.1382 0.368588 -1.22465 97.0795 -44.6755 -90.6542 13.2064 -10.1803 -45.4961 -20.3093 -8.55383 -52.2318 -3.22755 -0.0141817 -5.68297 -93.2786 -52.8042 74.3064 0.0520914 15.3939 -53.8875 23.4069 20.0032 -51.7715 -0.169001 -0.160054 -7.51335 12.148 0.928666 -3.38575 13.3709 3.75509 13.0248 
50.9894 86.6966 -84.281 83.912 40.6572 95.4947 -165.509 49.2727 89.9222 -54.6189 19.4134 -3.45092 57.2116 6.25704 19.7726 46.5728 -2.22039 -0.541078 160.298 50.825 86.2399 -56.4504 -16.8079 8.03193 58.9808 3.2412 5.35023 41.7981 0.301597 12.2245 0.171208 11.5753 -90.6079 3.72218 0.0983978 -1.1901 -7.9493 0.0459312 -1.19328 -30.4806 0.45149 -1.10552 -10.4679 0.451496 -1.10552 97.0177 -42.8996 -90.9587 10.772 -13.6359 -50.2825 -23.0185 -6.87609 -57.1644 -4.55515 -0.0244346 -5.21377 -92.6932 -51.6866 74.8744 -6.3335 11.7995 -57.5975 21.6319 18.2692 -49.3014 6.10235 -0.27463 -6.64336 16.1405 0.704974 -4.55911 9.87171 3.70806 14.1201 
51.3554 83.6017 -85.161 83.0843 39.9224 95.4187 -161.067 53.4041 87.2258 -62.4695 20.5691 -3.68429 59.5054 9.18142 21.2925 49.6008 -2.32582 0.54082 155.712 55.9291 87.102 -63.936 -19.7657 7.9541 61.1118 1.85652 5.16133 36.2267 1.24781 13.2494 0.208462 11.7998 -90.5388 3.27408 0.202523 -1.05253 -8.39728 0.156025 -1.06043 -30.9297 0.50947 -0.943031 -10.917 0.509492 -0.943022 97.143 -40.9149 -90.9771 9.55732 -16.4025 -52.3111 -26.6325 -5.35356 -61.7929 -3.49231 -0.0583084 -3.86284 -92.2388 -50.8985 75.3463 -9.13212 11.7116 -60.0068 18.6429 13.6985 -49.5013 12.9667 -0.0746855 -4.25218 11.9823 0.513859 1.18498 15.3539 1.75417 8.93205 
